<?xml version="1.0" encoding="UTF-8" standalone="no"?>
<svg
   xmlns:svg="http://www.w3.org/2000/svg"
   xmlns="http://www.w3.org/2000/svg"
   version="1.1"
   width="633.26526"
   height="185.92085"
   id="svg3665">
  <defs
     id="defs3667" />
  <g
     transform="translate(-33.36737,-439.40175)"
     id="layer1">
    <path
       d="m 610.03408,499.11249 c -14.95157,10.62468 -23.14192,21.7405 -23.14192,45.87613 l 0,71.47442 38.58456,0 0,-68.07985 c 0,-9.1898 0.96592,-17.39128 12.05955,-25.11267 11.07663,-7.7326 24.09636,-14.97943 24.09636,-14.97943 l -19.30058,-30.93023 c 0,0 -23.33723,15.37586 -32.29797,21.75163 m -298.06165,5.28331 c -9.65316,-6.052 -21.04823,-9.63635 -33.2695,-9.63635 -34.63184,0 -62.69785,28.1274 -62.69785,62.79278 0,34.6653 28.06601,62.77038 62.69785,62.77038 12.22127,0 23.61634,-3.55642 33.2695,-9.64189 l 0,5.30947 35.22345,0 0,-120.25376 -35.22345,0 0,8.65937 z m 0,57.53911 c -2.55152,15.31433 -15.81129,27.01084 -31.81796,27.01084 -17.84904,0 -32.32037,-14.48793 -32.32037,-32.37064 0,-17.86024 14.47133,-32.34271 32.32037,-32.34271 16.00667,0 29.26644,11.66305 31.81796,26.98305 l 0,10.71946 z m 188.76623,-69.91566 c -18.29553,0 -33.52067,6.15252 -45.64714,18.44085 -12.13754,12.2884 -18.20074,27.73671 -18.20074,46.32835 0,18.16175 6.07433,33.26936 18.2454,45.35684 12.17114,12.07614 27.92656,18.06675 47.27187,18.06675 12.43911,0 23.2367,-2.19407 32.29811,-6.56569 9.06135,-4.38261 14.555,-10.70833 27.20622,-27.56359 l -26.05065,-12.17114 c -8.29641,16.4869 -22.11454,19.37884 -33.66026,19.37884 -9.69782,0 -17.6146,-2.5961 -23.85085,-7.76598 -6.23625,-5.18668 -10.07185,-12.14874 -11.48993,-20.93664 l 99.45671,0 0.11268,-5.78956 c 0,-20.06552 -6.08553,-36.20064 -18.2678,-48.43864 -12.17114,-12.2102 -27.98236,-18.34039 -47.42259,-18.34039 M 468.168,540.68693 c 3.48949,-7.42555 7.31943,-12.59557 11.40627,-15.53785 6.53216,-4.70092 14.1531,-7.05691 22.82354,-7.05691 7.99503,0 14.99062,2.09368 21.03143,6.29205 6.04094,4.17617 10.09978,9.62522 12.14887,16.30271 l -67.41011,0 z m -90.21542,-60.21293 38.06534,0 0,-36.07225 -38.06534,0 0,36.07225 z m 0,136.66233 38.06534,0 0,-122.4925 -38.06534,0 0,122.4925 z m -226.46103,-100.24405 -74.204512,0 0,-66.94661 -38.919668,0 0,167.20192 38.919668,0 0,-69.38087 74.204512,0 0,69.38087 41.35939,0 0,-167.20192 -41.35939,0 0,66.94661 z"
       id="path254"
       style="fill:#d51148;fill-opacity:1;fill-rule:nonzero;stroke:none" />
  </g>
</svg>
