<svg xmlns="http://www.w3.org/2000/svg" viewBox="0 0 740 180" role="img" aria-label="XJTU AIRS Lab logo">
  <defs>
    <linearGradient id="airs-lockup-bg" x1="14" y1="12" x2="126" y2="132" gradientUnits="userSpaceOnUse">
      <stop offset="0" stop-color="#09121f"/>
      <stop offset="0.48" stop-color="#14324f"/>
      <stop offset="1" stop-color="#0f766e"/>
    </linearGradient>
    <linearGradient id="airs-lockup-signal" x1="34" y1="60" x2="106" y2="92" gradientUnits="userSpaceOnUse">
      <stop offset="0" stop-color="#67e8f9"/>
      <stop offset="0.5" stop-color="#60a5fa"/>
      <stop offset="1" stop-color="#fb7185"/>
    </linearGradient>
    <linearGradient id="airs-lockup-glow" x1="94" y1="18" x2="122" y2="50" gradientUnits="userSpaceOnUse">
      <stop offset="0" stop-color="#5eead4" stop-opacity="0.9"/>
      <stop offset="1" stop-color="#60a5fa" stop-opacity="0"/>
    </linearGradient>
  </defs>
  <rect x="12" y="12" width="120" height="120" rx="34" fill="url(#airs-lockup-bg)"/>
  <circle cx="102" cy="38" r="18" fill="url(#airs-lockup-glow)"/>
  <path d="M44 106 68 32.5" fill="none" stroke="#f8fafc" stroke-linecap="round" stroke-width="10"/>
  <path d="M96 106 72 32.5" fill="none" stroke="#f8fafc" stroke-linecap="round" stroke-width="10"/>
  <path d="M52 84c8-5 16-5 24 0s16 5 24 0" fill="none" stroke="url(#airs-lockup-signal)" stroke-linecap="round" stroke-width="7"/>
  <path d="M55 95c7-4 14-4 21 0s14 4 21 0" fill="none" opacity="0.9" stroke="url(#airs-lockup-signal)" stroke-linecap="round" stroke-width="5"/>
  <path d="M83 29c14 2 25 13 28 27" fill="none" opacity="0.45" stroke="#67e8f9" stroke-linecap="round" stroke-width="4"/>
  <circle cx="71" cy="29" r="6" fill="#fb7185"/>
  <text x="170" y="72" fill="#101828" font-family="Exo, Arial, sans-serif" font-size="48" font-weight="800" letter-spacing="0.02em">XJTU AIRS Lab</text>
  <text x="172" y="106" fill="#475467" font-family="Source Sans 3, Arial, sans-serif" font-size="22" font-weight="600" letter-spacing="0.02em">Artificial Intelligence, Interaction, and Real-World Systems</text>
</svg>
