<svg xmlns="http://www.w3.org/2000/svg" viewBox="0 0 96 96" role="img" aria-label="AIRS Lab logo mark">
  <defs>
    <linearGradient id="airs-bg" x1="10" y1="10" x2="82" y2="86" gradientUnits="userSpaceOnUse">
      <stop offset="0" stop-color="#09121f"/>
      <stop offset="0.48" stop-color="#14324f"/>
      <stop offset="1" stop-color="#0f766e"/>
    </linearGradient>
    <linearGradient id="airs-signal" x1="28" y1="46" x2="70" y2="66" gradientUnits="userSpaceOnUse">
      <stop offset="0" stop-color="#67e8f9"/>
      <stop offset="0.5" stop-color="#60a5fa"/>
      <stop offset="1" stop-color="#fb7185"/>
    </linearGradient>
    <linearGradient id="airs-glow" x1="64" y1="18" x2="82" y2="40" gradientUnits="userSpaceOnUse">
      <stop offset="0" stop-color="#5eead4" stop-opacity="0.9"/>
      <stop offset="1" stop-color="#60a5fa" stop-opacity="0"/>
    </linearGradient>
  </defs>
  <rect x="4" y="4" width="88" height="88" rx="26" fill="url(#airs-bg)"/>
  <circle cx="72" cy="24" r="12" fill="url(#airs-glow)"/>
  <path d="M29 74 46.5 20.5" fill="none" stroke="#f8fafc" stroke-linecap="round" stroke-width="8"/>
  <path d="M67 74 49.5 20.5" fill="none" stroke="#f8fafc" stroke-linecap="round" stroke-width="8"/>
  <path d="M35 58c6-4 12-4 18 0s12 4 18 0" fill="none" stroke="url(#airs-signal)" stroke-linecap="round" stroke-width="5"/>
  <path d="M37 66c5-3 10-3 15 0s10 3 15 0" fill="none" opacity="0.9" stroke="url(#airs-signal)" stroke-linecap="round" stroke-width="4"/>
  <path d="M58 18c10 2 18 10 20 20" fill="none" opacity="0.45" stroke="#67e8f9" stroke-linecap="round" stroke-width="3"/>
  <circle cx="49" cy="19" r="4.5" fill="#fb7185"/>
</svg>
